<svg width="62" height="40" viewBox="0 0 62 40" fill="none" xmlns="http://www.w3.org/2000/svg">
<path d="M51.1499 29.0928C48.244 29.0928 45.8799 31.4575 45.8799 34.3628C45.8799 37.2687 48.244 39.6328 51.1499 39.6328C54.0552 39.6328 56.4199 37.2687 56.4199 34.3628C56.4199 31.4575 54.0552 29.0928 51.1499 29.0928ZM51.1499 35.9128C50.295 35.9128 49.5999 35.2177 49.5999 34.3628C49.5999 33.5078 50.295 32.8128 51.1499 32.8128C52.0048 32.8128 52.6999 33.5078 52.6999 34.3628C52.6999 35.2177 52.0048 35.9128 51.1499 35.9128Z" fill="#1C9CF2"/>
<path d="M50.6451 7.18604H41.5398C40.8547 7.18604 40.2998 7.7416 40.2998 8.42603V32.606C40.2998 33.2905 40.8547 33.846 41.5398 33.846H42.8549C43.4687 33.846 44.0124 33.4039 44.0917 32.7952C44.5784 29.0665 47.5526 26.7539 51.1504 26.7539C54.7482 26.7539 57.7224 29.0666 58.2091 32.7952C58.2884 33.404 58.8315 33.846 59.446 33.846H60.7597C61.4441 33.846 61.9997 33.2905 61.9997 32.606V20.516C61.9997 20.2247 61.8974 19.9431 61.7108 19.7206L51.5961 7.63057C51.3606 7.34914 51.0121 7.18604 50.6451 7.18604ZM42.7798 17.106V10.906C42.7798 10.2216 43.3347 9.66603 44.0198 9.66603H49.482C49.8496 9.66603 50.1987 9.82975 50.4343 10.1124L55.6007 16.3124C56.2734 17.1202 55.6993 18.346 54.6478 18.346H44.0198C43.3347 18.346 42.7798 17.7912 42.7798 17.106Z" fill="#FF6633"/>
<path d="M1.24 33.8467H4.41507C5.02889 33.8467 5.5726 33.4046 5.65193 32.7959C6.13861 29.0671 9.11278 26.7546 12.7106 26.7546C16.3084 26.7546 19.2826 29.0672 19.7693 32.7959C19.8486 33.4047 20.3917 33.8467 21.0061 33.8467H36.58C37.2645 33.8467 37.82 33.2911 37.82 32.6067V1.6067C37.82 0.922268 37.2644 0.366699 36.58 0.366699H1.24C0.554859 0.366699 0 0.922268 0 1.6067V32.6067C0 33.2912 0.554859 33.8467 1.24 33.8467Z" fill="#1C9CF2"/>
<path d="M12.7104 29.0928C9.80453 29.0928 7.44043 31.4575 7.44043 34.3628C7.44043 37.2687 9.80453 39.6328 12.7104 39.6328C15.6157 39.6328 17.9804 37.2687 17.9804 34.3628C17.9804 31.4575 15.6157 29.0928 12.7104 29.0928ZM12.7104 35.9128C11.8555 35.9128 11.1604 35.2177 11.1604 34.3628C11.1604 33.5078 11.8555 32.8128 12.7104 32.8128C13.5654 32.8128 14.2604 33.5078 14.2604 34.3628C14.2604 35.2177 13.5654 35.9128 12.7104 35.9128Z" fill="#1C9CF2"/>
</svg>
